<?xml version="1.0" encoding="UTF-8" standalone="no"?>
<!DOCTYPE svg PUBLIC "-//W3C//DTD SVG 1.1//EN" "http://www.w3.org/Graphics/SVG/1.1/DTD/svg11.dtd">
<svg xmlns="http://www.w3.org/2000/svg" version="1.1" viewBox="0 0 468 468">
<path fill="rgb(247,247,247)" fill-opacity="1.000" d="M 0.00 0.00 Q 234.00 0.00 468.00 0.00 Q 468.00 234.00 468.00 468.00 Q 234.00 468.00 0.00 468.00 Q 0.00 234.00 0.00 0.00 Z M 336.25 409.71 Q 336.22 408.98 336.94 408.44 Q 340.90 405.39 346.31 400.56 Q 347.18 399.79 350.46 398.93 Q 350.79 398.85 350.43 398.81 L 348.80 398.66 Q 348.18 398.60 348.82 398.57 L 354.50 398.29 L 361.26 398.05 A 0.55 0.50 89.5 0 0 361.75 397.50 Q 362.10 351.13 361.75 304.75 Q 362.34 193.62 361.75 82.78 A 0.78 0.78 89.9 0 0 360.97 82.00 Q 262.55 81.87 165.00 82.21 Q 157.06 82.24 145.00 82.10 Q 128.65 81.91 112.31 82.06 Q 110.65 81.97 110.96 83.50 Q 110.50 84.84 110.75 85.75 Q 111.16 87.26 110.05 87.51 A 1.13 0.84 1.5 0 0 109.34 88.01 Q 107.47 91.70 105.21 94.12 Q 104.06 95.35 104.02 97.03 Q 103.51 116.12 103.48 134.50 Q 103.24 272.38 104.00 410.25 A 0.51 0.50 0.6 0 0 104.50 410.75 L 137.00 411.21 Q 181.58 413.25 193.00 413.25 Q 295.12 413.26 397.14 413.25 A 0.55 0.55 45.0 0 0 397.69 412.70 Q 397.70 268.97 397.98 125.25 Q 398.00 116.18 397.90 105.24 Q 397.64 73.96 397.75 41.77 A 1.01 1.01 -89.7 0 0 396.74 40.75 L 74.15 40.75 A 1.84 1.84 45.0 0 0 72.31 42.59 L 73.00 428.58 A 0.97 0.97 -1.4 0 0 74.02 429.55 Q 146.21 425.92 217.49 421.60 Q 217.56 421.59 237.00 420.30 Q 252.13 419.29 261.50 419.25 Q 264.40 419.24 265.83 418.85 Q 266.40 418.69 265.81 418.68 Q 234.04 418.03 202.25 417.99 Q 146.84 417.93 91.44 417.56 A 0.53 0.53 88.3 0 1 90.91 417.06 Q 88.73 381.66 86.75 346.25 Q 85.00 308.24 83.02 270.24 Q 82.47 259.57 82.10 250.26 Q 78.09 148.12 76.06 45.76 A 0.50 0.50 89.4 0 1 76.56 45.25 Q 204.00 45.25 331.00 45.15 Q 357.60 45.13 383.46 44.33 Q 385.57 44.27 383.52 44.75 Q 350.78 52.34 317.82 58.84 Q 311.20 60.14 298.16 62.47 Q 264.40 68.47 230.98 76.12 Q 230.59 76.21 230.45 76.36 Q 230.18 76.66 231.50 76.53 Q 306.94 69.37 381.69 57.02 A 1.46 1.13 -70.1 0 0 382.48 56.52 L 392.35 44.14 Q 393.56 42.61 393.56 44.61 L 393.69 408.94 A 0.51 0.50 -0.0 0 1 393.18 409.44 L 336.25 409.71 Z"/>
<path fill="rgb(8,7,7)" fill-opacity="1.000" d="M 74.15 40.75 L 396.74 40.75 A 1.01 1.01 -89.7 0 1 397.75 41.77 Q 397.64 73.96 397.90 105.24 Q 398.00 116.18 397.98 125.25 Q 397.70 268.97 397.69 412.70 A 0.55 0.55 -45.0 0 1 397.14 413.25 Q 295.12 413.26 193.00 413.25 Q 181.58 413.25 137.00 411.21 L 135.31 410.89 Q 134.86 410.81 135.30 410.79 Q 150.76 409.94 166.25 409.98 Q 251.25 410.20 336.25 409.71 L 393.18 409.44 A 0.51 0.50 -0.0 0 0 393.69 408.94 L 393.56 44.61 Q 393.56 42.61 392.35 44.14 L 382.48 56.52 A 1.46 1.13 -70.1 0 1 381.69 57.02 Q 306.94 69.37 231.50 76.53 Q 230.18 76.66 230.45 76.36 Q 230.59 76.21 230.98 76.12 Q 264.40 68.47 298.16 62.47 Q 311.20 60.14 317.82 58.84 Q 350.78 52.34 383.52 44.75 Q 385.57 44.27 383.46 44.33 Q 357.60 45.13 331.00 45.15 Q 204.00 45.25 76.56 45.25 A 0.50 0.50 89.4 0 0 76.06 45.76 Q 78.09 148.12 82.10 250.26 Q 82.47 259.57 83.02 270.24 Q 85.00 308.24 86.75 346.25 Q 88.73 381.66 90.91 417.06 A 0.53 0.53 88.3 0 0 91.44 417.56 Q 146.84 417.93 202.25 417.99 Q 234.04 418.03 265.81 418.68 Q 266.40 418.69 265.83 418.85 Q 264.40 419.24 261.50 419.25 Q 252.13 419.29 237.00 420.30 Q 217.56 421.59 217.49 421.60 Q 146.21 425.92 74.02 429.55 A 0.97 0.97 -1.4 0 1 73.00 428.58 L 72.31 42.59 A 1.84 1.84 45.0 0 1 74.15 40.75 Z"/>
<path fill="rgb(12,10,9)" fill-opacity="1.000" d="M 112.31 82.06 Q 128.65 81.91 145.00 82.10 Q 157.06 82.24 165.00 82.21 Q 262.55 81.87 360.97 82.00 A 0.78 0.78 89.9 0 1 361.75 82.78 Q 362.34 193.62 361.75 304.75 Q 362.10 351.13 361.75 397.50 A 0.55 0.50 89.5 0 1 361.26 398.05 L 354.50 398.29 L 111.30 398.31 A 0.30 0.30 89.7 0 1 111.00 398.01 Q 110.41 264.63 110.94 131.25 Q 111.03 107.37 110.96 83.50 Q 110.65 81.97 112.31 82.06 Z M 113.29 89.00 L 113.29 120.75 Q 112.48 139.25 113.46 157.75 Q 113.43 175.75 113.00 193.75 Q 113.04 208.00 113.50 222.25 Q 113.32 231.13 113.00 240.00 Q 113.32 281.37 113.46 322.75 Q 112.68 346.12 113.29 369.50 L 113.07 395.05 A 0.69 0.68 -89.6 0 0 113.75 395.75 L 120.50 395.71 L 153.00 395.71 L 322.00 395.54 L 359.19 395.69 A 0.72 0.57 4.2 0 0 359.88 395.22 Q 359.98 394.61 359.06 394.56 Q 344.78 394.71 330.50 394.79 Q 240.75 395.31 151.00 394.79 L 120.00 394.96 L 115.24 394.83 A 0.59 0.51 89.9 0 1 114.74 394.25 L 114.46 369.75 L 114.21 329.25 Q 114.15 286.50 114.50 243.75 Q 113.89 225.37 114.50 207.00 Q 114.04 181.75 114.29 156.50 Q 115.13 139.01 114.71 121.50 L 114.54 89.00 Q 114.84 88.85 114.79 88.50 Q 117.69 102.76 116.81 117.31 Q 116.97 118.69 119.15 119.80 A 0.42 0.42 -74.1 0 0 119.76 119.46 Q 120.64 108.26 121.20 97.64 Q 121.26 96.54 121.77 96.03 Q 122.44 95.34 123.50 95.29 L 123.54 97.25 Q 123.49 124.88 123.25 152.50 Q 123.80 163.63 123.25 174.75 Q 123.31 194.87 123.50 215.00 Q 123.04 233.87 123.31 252.75 Q 123.48 265.29 123.45 272.74 Q 123.20 330.12 123.50 387.52 Q 123.50 387.92 123.84 387.68 L 134.50 379.96 L 139.24 376.87 A 1.83 1.67 74.7 0 0 140.00 375.39 L 139.96 128.00 L 140.19 127.30 A 0.90 0.80 -85.5 0 1 140.80 126.72 L 156.00 123.54 L 165.93 123.67 A 0.85 0.82 -74.1 0 0 166.67 123.24 Q 167.30 122.14 168.36 121.44 Q 168.55 121.32 168.78 121.28 Q 171.93 120.78 169.11 120.70 Q 168.56 120.68 169.09 120.61 L 173.95 119.93 Q 174.35 119.87 174.75 119.56 L 175.75 118.79 L 179.25 118.21 Q 179.03 119.05 178.25 119.21 A 1.35 0.63 -2.7 0 0 177.44 119.64 Q 176.83 120.55 177.70 120.92 A 1.59 1.23 1.6 0 1 178.42 121.51 Q 179.53 123.34 182.00 122.75 Q 189.99 123.07 197.94 122.57 Q 202.67 122.27 210.20 122.18 Q 216.37 122.10 222.50 121.25 Q 227.82 121.59 232.94 120.19 Q 237.09 119.92 241.25 120.00 Q 246.30 118.80 251.50 119.00 Q 256.75 117.82 259.06 118.06 Q 262.73 118.45 265.25 117.75 Q 269.01 116.70 271.94 117.19 Q 278.59 116.07 285.31 116.00 Q 286.90 115.98 289.13 115.49 Q 291.03 115.07 293.00 115.02 Q 296.81 114.94 300.50 114.00 Q 306.18 114.32 311.78 113.39 Q 313.39 113.12 315.38 113.12 Q 317.49 113.12 319.00 112.75 Q 323.37 111.68 326.94 112.19 Q 331.89 111.15 336.94 110.95 A 1.14 0.91 -67.6 0 0 337.72 110.52 Q 338.39 109.65 339.46 109.50 Q 338.70 110.41 338.37 111.51 A 1.25 0.97 42.0 0 0 338.53 112.40 Q 339.30 113.66 339.00 115.25 Q 339.53 122.50 339.00 129.75 Q 338.51 136.47 339.21 318.50 L 339.29 333.00 Q 339.22 335.00 339.25 337.00 Q 339.10 338.26 338.06 338.51 A 0.51 0.46 -12.2 0 0 337.66 339.06 Q 342.36 361.61 350.82 383.03 Q 350.94 383.35 350.96 383.99 Q 350.97 384.55 351.29 385.00 Q 351.57 385.94 351.83 386.87 Q 351.98 387.43 351.93 388.13 Q 351.77 390.54 353.46 388.75 Q 354.54 385.43 353.75 382.00 Q 354.16 373.50 354.25 365.00 Q 354.01 341.38 353.96 317.75 Q 354.51 269.16 354.06 220.56 Q 354.56 177.16 353.96 133.75 L 354.27 86.16 A 1.88 1.85 -87.9 0 0 352.55 84.28 Q 342.09 83.57 331.25 84.50 Q 323.02 85.21 307.16 84.61 Q 300.92 84.37 291.34 84.43 Q 283.42 84.48 275.50 84.00 Q 252.50 84.05 229.50 84.03 Q 218.85 84.03 208.25 85.04 L 201.00 85.21 L 148.75 85.21 Q 131.69 83.41 114.57 84.29 A 0.94 0.88 12.3 0 0 113.80 84.75 Q 112.75 86.68 113.29 89.00 Z M 335.21 246.81 Q 335.21 181.66 335.25 115.05 A 0.92 0.92 87.2 0 0 334.24 114.13 Q 280.02 119.34 227.00 124.00 Q 214.36 125.11 144.31 128.79 A 0.53 0.52 88.9 0 0 143.81 129.32 L 143.75 374.16 A 0.57 0.56 84.6 0 0 144.42 374.72 Q 183.28 367.26 222.18 359.14 Q 277.93 347.51 334.66 336.07 A 0.74 0.73 -5.8 0 0 335.25 335.35 Q 335.20 291.28 335.21 246.81 Z M 333.50 339.79 Q 273.01 351.60 212.75 364.50 Q 147.55 377.63 145.81 377.81 Q 142.66 378.14 139.93 379.67 Q 134.10 382.94 128.72 386.89 Q 128.31 387.19 128.81 387.19 L 343.25 386.96 L 348.96 387.00 A 0.36 0.35 79.1 0 0 349.29 386.50 Q 339.89 363.60 334.69 340.01 Q 334.39 338.67 333.50 339.79 Z"/>
<path fill="rgb(196,196,195)" fill-opacity="1.000" d="M 110.96 83.50 Q 111.03 107.37 110.94 131.25 Q 110.41 264.63 111.00 398.01 A 0.30 0.30 89.9 0 0 111.30 398.31 L 354.50 398.29 L 348.82 398.57 Q 348.18 398.60 348.80 398.66 L 350.43 398.81 Q 350.79 398.85 350.46 398.93 Q 347.18 399.79 346.31 400.56 Q 340.90 405.39 336.94 408.44 Q 336.22 408.98 336.25 409.71 Q 251.25 410.20 166.25 409.98 Q 150.76 409.94 135.30 410.79 Q 134.86 410.81 135.31 410.89 L 137.00 411.21 L 104.50 410.75 A 0.51 0.50 0.6 0 1 104.00 410.25 Q 103.24 272.38 103.48 134.50 Q 103.51 116.12 104.02 97.03 Q 104.06 95.35 105.21 94.12 Q 107.47 91.70 109.34 88.01 A 1.13 0.84 1.5 0 1 110.05 87.51 Q 111.16 87.26 110.75 85.75 Q 110.50 84.84 110.96 83.50 Z"/>
<path fill="rgb(83,84,82)" fill-opacity="1.000" d="M 148.75 85.21 L 144.74 85.26 A 0.77 0.55 4.4 0 0 144.02 85.69 Q 143.91 86.21 145.01 86.06 Q 146.65 85.84 148.25 86.21 L 134.50 86.46 Q 134.18 84.94 132.75 84.95 Q 124.25 85.01 115.75 85.00 Q 113.79 85.00 114.75 86.79 L 114.79 88.50 Q 114.84 88.85 114.54 89.00 Q 114.32 87.59 114.30 89.00 Q 114.16 99.06 114.00 90.00 Q 113.98 89.03 113.29 89.00 Q 112.75 86.68 113.80 84.75 A 0.94 0.88 12.3 0 1 114.57 84.29 Q 131.69 83.41 148.75 85.21 Z"/>
<path fill="rgb(83,84,82)" fill-opacity="1.000" d="M 229.50 84.03 Q 252.50 84.05 275.50 84.00 Q 283.42 84.48 291.34 84.43 Q 300.92 84.37 307.16 84.61 Q 323.02 85.21 331.25 84.50 Q 342.09 83.57 352.55 84.28 A 1.88 1.85 -87.9 0 1 354.27 86.16 L 353.96 133.75 Q 352.83 132.80 353.25 131.25 Q 353.43 130.57 353.19 86.68 A 1.55 1.21 -69.8 0 0 352.90 85.78 Q 351.70 84.29 351.25 87.04 Q 324.63 86.33 298.00 86.75 Q 264.37 86.72 230.75 87.00 Q 224.04 87.06 206.75 86.29 Q 210.88 86.62 208.25 85.04 Q 218.85 84.03 229.50 84.03 Z"/>
<path fill="rgb(44,39,33)" fill-opacity="1.000" d="M 115.75 85.00 Q 124.25 85.01 132.75 84.95 Q 134.18 84.94 134.50 86.46 Q 124.65 87.52 114.75 86.79 Q 113.79 85.00 115.75 85.00 Z"/>
<path fill="rgb(141,132,126)" fill-opacity="1.000" d="M 208.25 85.04 Q 210.88 86.62 206.75 86.29 L 194.25 86.04 Q 197.37 85.97 200.50 86.00 Q 201.12 85.84 201.00 85.21 L 208.25 85.04 Z"/>
<path fill="rgb(193,192,191)" fill-opacity="1.000" d="M 144.74 85.26 L 148.75 85.21 L 201.00 85.21 Q 201.12 85.84 200.50 86.00 Q 197.37 85.97 194.25 86.04 Q 188.66 86.28 179.00 86.00 Q 169.23 85.72 148.25 86.21 Q 146.65 85.84 145.01 86.06 Q 143.91 86.21 144.02 85.69 A 0.77 0.55 4.4 0 1 144.74 85.26 Z"/>
<path fill="rgb(44,39,33)" fill-opacity="1.000" d="M 353.19 86.68 Q 353.43 130.57 353.25 131.25 Q 352.83 132.80 353.96 133.75 Q 354.56 177.16 354.06 220.56 Q 354.51 269.16 353.96 317.75 Q 353.83 320.49 353.44 323.19 Q 353.12 352.09 353.37 381.00 Q 353.40 383.89 352.61 386.67 Q 352.20 388.12 353.46 388.75 Q 351.77 390.54 351.93 388.13 Q 351.98 387.43 351.83 386.87 Q 351.57 385.94 351.29 385.00 L 351.50 385.00 A 0.26 0.19 90.0 0 0 351.69 384.74 Q 351.04 275.87 351.25 167.00 Q 351.05 128.49 351.74 89.99 Q 351.75 89.70 351.99 89.06 Q 352.29 88.25 351.29 88.00 L 351.25 87.04 Q 351.70 84.29 352.90 85.78 A 1.55 1.21 -69.8 0 1 353.19 86.68 Z"/>
<path fill="rgb(4,4,4)" fill-opacity="1.000" d="M 179.00 86.00 Q 188.66 86.28 194.25 86.04 L 206.75 86.29 Q 224.04 87.06 230.75 87.00 Q 264.37 86.72 298.00 86.75 Q 324.63 86.33 351.25 87.04 L 351.29 88.00 Q 345.90 99.04 339.46 109.50 Q 338.39 109.65 337.72 110.52 A 1.14 0.91 -67.6 0 1 336.94 110.95 Q 331.89 111.15 326.94 112.19 Q 323.37 111.68 319.00 112.75 Q 317.49 113.12 315.38 113.12 Q 313.39 113.12 311.78 113.39 Q 306.18 114.32 300.50 114.00 Q 296.81 114.94 293.00 115.02 Q 291.03 115.07 289.13 115.49 Q 286.90 115.98 285.31 116.00 Q 278.59 116.07 271.94 117.19 Q 269.01 116.70 265.25 117.75 Q 262.73 118.45 259.06 118.06 Q 256.75 117.82 251.50 119.00 Q 246.30 118.80 241.25 120.00 Q 237.09 119.92 232.94 120.19 Q 227.82 121.59 222.50 121.25 Q 216.37 122.10 210.20 122.18 Q 202.67 122.27 197.94 122.57 Q 189.99 123.07 182.00 122.75 Q 179.53 123.34 178.42 121.51 A 1.59 1.23 1.6 0 0 177.70 120.92 Q 176.83 120.55 177.44 119.64 A 1.35 0.63 -2.7 0 1 178.25 119.21 Q 179.03 119.05 179.25 118.21 L 284.25 95.21 L 287.25 94.46 L 292.69 94.20 Q 293.76 94.15 293.26 93.74 Q 293.07 93.58 292.25 93.75 Q 289.21 93.57 286.25 94.21 L 282.50 94.54 Q 278.04 93.60 273.51 93.73 Q 273.26 93.74 272.62 94.07 L 271.25 94.79 L 211.25 94.96 Q 203.30 93.83 195.31 93.06 Q 179.48 93.19 163.66 93.07 Q 163.26 93.06 163.02 93.24 Q 162.55 93.58 162.83 93.98 A 0.38 0.32 59.3 0 1 162.74 94.51 L 161.75 94.96 L 147.50 95.21 L 123.50 95.29 Q 122.44 95.34 121.77 96.03 Q 121.26 96.54 121.20 97.64 Q 120.64 108.26 119.76 119.46 A 0.42 0.42 -74.1 0 1 119.15 119.80 Q 116.97 118.69 116.81 117.31 Q 117.69 102.76 114.79 88.50 L 114.75 86.79 Q 124.65 87.52 134.50 86.46 L 148.25 86.21 Q 169.23 85.72 179.00 86.00 Z"/>
<path fill="rgb(204,204,205)" fill-opacity="1.000" d="M 351.29 88.00 Q 352.29 88.25 351.99 89.06 Q 351.75 89.70 351.74 89.99 Q 351.05 128.49 351.25 167.00 Q 351.04 275.87 351.69 384.74 A 0.26 0.19 -90.0 0 1 351.50 385.00 L 351.29 385.00 Q 350.97 384.55 350.96 383.99 Q 350.94 383.35 350.82 383.03 Q 342.36 361.61 337.66 339.06 A 0.51 0.46 -12.2 0 1 338.06 338.51 Q 339.10 338.26 339.25 337.00 Q 339.22 335.00 339.29 333.00 L 339.95 332.81 A 0.69 0.66 -7.7 0 0 340.45 332.18 L 340.68 315.81 A 0.59 0.44 88.1 0 0 340.19 315.20 L 339.69 315.26 A 0.77 0.48 88.7 0 0 339.26 315.99 L 339.21 318.50 Q 338.51 136.47 339.00 129.75 Q 339.53 122.50 339.00 115.25 Q 339.30 113.66 338.53 112.40 A 1.25 0.97 42.0 0 1 338.37 111.51 Q 338.70 110.41 339.46 109.50 Q 345.90 99.04 351.29 88.00 Z"/>
<path fill="rgb(141,132,126)" fill-opacity="1.000" d="M 114.54 89.00 L 114.71 121.50 Q 113.36 122.29 113.29 120.75 L 113.29 89.00 Q 113.98 89.03 114.00 90.00 Q 114.16 99.06 114.30 89.00 Q 114.32 87.59 114.54 89.00 Z"/>
<path fill="rgb(12,10,9)" fill-opacity="1.000" d="M 163.66 93.07 Q 179.48 93.19 195.31 93.06 Q 203.30 93.83 211.25 94.96 L 209.00 95.21 L 188.00 95.21 L 161.75 94.96 L 162.74 94.51 A 0.38 0.32 59.3 0 0 162.83 93.98 Q 162.55 93.58 163.02 93.24 Q 163.26 93.06 163.66 93.07 Z"/>
<path fill="rgb(44,39,33)" fill-opacity="1.000" d="M 273.51 93.73 Q 278.04 93.60 282.50 94.54 L 282.50 94.71 L 274.50 95.29 L 271.25 94.79 L 272.62 94.07 Q 273.26 93.74 273.51 93.73 Z"/>
<path fill="rgb(83,84,82)" fill-opacity="1.000" d="M 292.25 93.75 Q 293.07 93.58 293.26 93.74 Q 293.76 94.15 292.69 94.20 L 287.25 94.46 Q 286.82 94.12 286.25 94.21 Q 289.21 93.57 292.25 93.75 Z"/>
<path fill="rgb(141,132,126)" fill-opacity="1.000" d="M 286.25 94.21 Q 286.82 94.12 287.25 94.46 L 284.25 95.21 Q 283.77 94.36 282.50 94.71 L 282.50 94.54 L 286.25 94.21 Z"/>
<path fill="rgb(193,192,191)" fill-opacity="1.000" d="M 271.25 94.79 L 274.50 95.29 L 272.76 95.54 A 1.37 0.71 2.4 0 0 271.97 95.91 Q 271.10 96.96 269.50 96.75 Q 248.75 97.34 228.00 97.21 Q 225.60 97.01 227.21 96.51 Q 227.48 96.42 227.61 96.28 Q 228.05 95.82 227.25 95.74 Q 220.50 95.13 213.76 95.83 Q 211.32 96.08 209.00 95.21 L 211.25 94.96 L 271.25 94.79 Z"/>
<path fill="rgb(245,245,245)" fill-opacity="1.000" d="M 282.50 94.71 Q 283.77 94.36 284.25 95.21 L 179.25 118.21 L 175.75 118.79 Q 167.96 120.06 160.25 121.75 Q 158.20 122.83 156.00 123.54 L 140.80 126.72 A 0.90 0.80 -85.5 0 0 140.19 127.30 L 139.96 128.00 Q 135.44 130.80 135.00 135.25 Q 134.48 140.55 135.00 184.75 Q 134.81 277.62 135.00 370.50 Q 135.00 371.08 134.50 379.96 L 123.84 387.68 Q 123.50 387.92 123.50 387.52 Q 123.20 330.12 123.45 272.74 Q 123.48 265.29 123.31 252.75 Q 123.04 233.87 123.50 215.00 Q 123.31 194.87 123.25 174.75 Q 123.80 163.63 123.25 152.50 Q 123.49 124.88 123.54 97.25 Q 126.63 96.82 129.75 97.03 Q 141.42 97.84 153.00 96.29 L 159.25 96.21 Q 169.56 97.15 177.00 97.25 Q 183.24 97.34 228.00 97.21 Q 248.75 97.34 269.50 96.75 Q 271.10 96.96 271.97 95.91 A 1.37 0.71 2.4 0 1 272.76 95.54 L 274.50 95.29 L 282.50 94.71 Z"/>
<path fill="rgb(193,192,191)" fill-opacity="1.000" d="M 147.50 95.21 Q 150.42 94.98 153.00 96.29 Q 141.42 97.84 129.75 97.03 Q 126.63 96.82 123.54 97.25 L 123.50 95.29 L 147.50 95.21 Z"/>
<path fill="rgb(141,132,126)" fill-opacity="1.000" d="M 161.75 94.96 L 188.00 95.21 L 160.55 95.31 A 1.31 0.63 -53.3 0 0 159.77 95.72 L 159.25 96.21 L 153.00 96.29 Q 150.42 94.98 147.50 95.21 L 161.75 94.96 Z"/>
<path fill="rgb(196,196,195)" fill-opacity="1.000" d="M 209.00 95.21 Q 211.32 96.08 213.76 95.83 Q 220.50 95.13 227.25 95.74 Q 228.05 95.82 227.61 96.28 Q 227.48 96.42 227.21 96.51 Q 225.60 97.01 228.00 97.21 Q 183.24 97.34 177.00 97.25 Q 169.56 97.15 159.25 96.21 L 159.77 95.72 A 1.31 0.63 -53.3 0 1 160.55 95.31 L 188.00 95.21 L 209.00 95.21 Z"/>
<path fill="rgb(247,247,247)" fill-opacity="1.000" d="M 334.24 114.13 A 0.92 0.92 87.2 0 1 335.25 115.05 Q 335.21 181.66 335.21 246.81 Q 335.20 291.28 335.25 335.35 A 0.74 0.73 -5.8 0 1 334.66 336.07 Q 277.93 347.51 222.18 359.14 Q 183.28 367.26 144.42 374.72 A 0.57 0.56 84.6 0 1 143.75 374.16 L 143.81 129.32 A 0.53 0.52 88.9 0 1 144.31 128.79 Q 214.36 125.11 227.00 124.00 Q 280.02 119.34 334.24 114.13 Z"/>
<path fill="rgb(83,84,82)" fill-opacity="1.000" d="M 175.75 118.79 L 174.75 119.56 Q 174.35 119.87 173.95 119.93 L 169.09 120.61 Q 168.56 120.68 169.11 120.70 Q 171.93 120.78 168.78 121.28 Q 168.55 121.32 168.36 121.44 Q 167.30 122.14 166.67 123.24 A 0.85 0.82 -74.1 0 1 165.93 123.67 L 156.00 123.54 Q 158.20 122.83 160.25 121.75 Q 167.96 120.06 175.75 118.79 Z"/>
<path fill="rgb(117,113,107)" fill-opacity="1.000" d="M 113.29 120.75 Q 113.36 122.29 114.71 121.50 Q 115.13 139.01 114.29 156.50 Q 113.08 155.96 113.46 157.75 Q 112.48 139.25 113.29 120.75 Z"/>
<path fill="rgb(193,192,191)" fill-opacity="1.000" d="M 139.96 128.00 L 140.00 375.39 A 1.83 1.67 74.7 0 1 139.24 376.87 L 134.50 379.96 Q 135.00 371.08 135.00 370.50 Q 134.81 277.62 135.00 184.75 Q 134.48 140.55 135.00 135.25 Q 135.44 130.80 139.96 128.00 Z"/>
<path fill="rgb(141,132,126)" fill-opacity="1.000" d="M 114.29 156.50 Q 114.04 181.75 114.50 207.00 Q 113.89 225.37 114.50 243.75 Q 114.15 286.50 114.21 329.25 Q 113.19 329.84 113.50 328.50 Q 113.59 328.09 113.46 322.75 Q 113.32 281.37 113.00 240.00 Q 113.32 231.13 113.50 222.25 Q 113.04 208.00 113.00 193.75 Q 113.43 175.75 113.46 157.75 Q 113.08 155.96 114.29 156.50 Z"/>
<path fill="rgb(247,247,247)" fill-opacity="1.000" d="M 340.68 315.81 L 340.45 332.18 A 0.69 0.66 -7.7 0 1 339.95 332.81 L 339.29 333.00 L 339.21 318.50 L 339.26 315.99 A 0.77 0.48 88.7 0 1 339.69 315.26 L 340.19 315.20 A 0.59 0.44 88.1 0 1 340.68 315.81 Z"/>
<path fill="rgb(117,113,107)" fill-opacity="1.000" d="M 353.96 317.75 Q 354.01 341.38 354.25 365.00 Q 354.16 373.50 353.75 382.00 Q 354.54 385.43 353.46 388.75 Q 352.20 388.12 352.61 386.67 Q 353.40 383.89 353.37 381.00 Q 353.12 352.09 353.44 323.19 Q 353.83 320.49 353.96 317.75 Z"/>
<path fill="rgb(117,113,107)" fill-opacity="1.000" d="M 113.46 322.75 Q 113.59 328.09 113.50 328.50 Q 113.19 329.84 114.21 329.25 L 114.46 369.75 Q 114.09 366.89 114.25 364.00 Q 114.19 363.28 113.88 363.29 A 0.69 0.35 -88.3 0 0 113.52 363.95 L 113.29 369.50 Q 112.68 346.12 113.46 322.75 Z"/>
<path fill="rgb(196,196,195)" fill-opacity="1.000" d="M 334.69 340.01 Q 339.89 363.60 349.29 386.50 A 0.36 0.35 79.1 0 1 348.96 387.00 L 343.25 386.96 Q 336.81 363.70 333.50 339.79 Q 334.39 338.67 334.69 340.01 Z"/>
<path fill="rgb(247,247,247)" fill-opacity="1.000" d="M 333.50 339.79 Q 336.81 363.70 343.25 386.96 L 128.81 387.19 Q 128.31 387.19 128.72 386.89 Q 134.10 382.94 139.93 379.67 Q 142.66 378.14 145.81 377.81 Q 147.55 377.63 212.75 364.50 Q 273.01 351.60 333.50 339.79 Z"/>
<path fill="rgb(141,132,126)" fill-opacity="1.000" d="M 114.25 364.00 Q 114.09 366.89 114.46 369.75 L 114.74 394.25 A 0.59 0.51 89.9 0 0 115.24 394.83 L 120.00 394.96 L 122.65 395.01 A 0.67 0.42 -7.1 0 1 123.21 395.27 Q 123.35 395.61 122.50 395.49 Q 121.45 395.34 120.50 395.71 L 113.75 395.75 A 0.69 0.68 -89.6 0 1 113.07 395.05 L 113.29 369.50 L 113.52 363.95 A 0.69 0.35 -88.3 0 1 113.88 363.29 Q 114.19 363.28 114.25 364.00 Z"/>
<path fill="rgb(83,84,82)" fill-opacity="1.000" d="M 359.06 394.56 Q 359.98 394.61 359.88 395.22 A 0.72 0.57 4.2 0 1 359.19 395.69 L 322.00 395.54 Q 325.60 395.03 329.24 395.35 Q 331.54 395.55 330.50 394.79 Q 344.78 394.71 359.06 394.56 Z"/>
<path fill="rgb(83,84,82)" fill-opacity="1.000" d="M 151.00 394.79 Q 146.54 395.58 153.00 395.71 L 120.50 395.71 Q 121.45 395.34 122.50 395.49 Q 123.35 395.61 123.21 395.27 A 0.67 0.42 -7.1 0 0 122.65 395.01 L 120.00 394.96 L 151.00 394.79 Z"/>
<path fill="rgb(117,113,107)" fill-opacity="1.000" d="M 151.00 394.79 Q 240.75 395.31 330.50 394.79 Q 331.54 395.55 329.24 395.35 Q 325.60 395.03 322.00 395.54 L 153.00 395.71 Q 146.54 395.58 151.00 394.79 Z"/>
</svg>