<svg xmlns="http://www.w3.org/2000/svg" width="800" height="600" id="svgcontent" x="400" y="300" viewBox="0 0 800 600"><g style="pointer-events:all"><title style="pointer-events: none" opacity="0.33">Layer 1</title><g id="svg_1"><path d="M565.8324,187.73A0.45,0.44 -4.6 0 0 565.2524,187.24Q547.6224,192.81 531.9524,201.57Q531.1724,202.01 532.0724,202.05Q538.5624,202.39 544.6924,203.84Q548.9524,204.85 551.7224,207.87A1.13,1.13 -38.7 0 1 551.5324,209.56Q549.0624,211.27 545.9924,210.6Q539.3424,209.16 532.5324,208.78Q520.7024,208.12 511.3224,215.13Q497.8924,225.19 486.2324,237.62Q485.0824,238.85 486.6624,238.27Q507.2724,230.75 527.8324,238.29Q531.7724,239.73 533.6124,242.82Q534.9424,245.06 532.4124,245.68Q528.2724,246.7 524.2324,245.44Q506.1724,239.79 488.1924,245.68Q477.3424,249.23 470.6724,257.68Q468.1924,260.83 462.3824,271.35Q458.6424,278.14 455.4824,285.23Q455.2724,285.69 455.6824,285.41Q476.5024,271.6 501.4924,272.84Q504.5624,272.99 506.3224,273.75Q508.6324,274.74 510.4624,276.62A0.5,0.5 -36.6 0 1 510.3424,277.4Q505.7424,279.97 501.0624,279.82Q498.9324,279.76 498.8424,279.76Q482.1424,279.94 469.2724,285.81Q457.9924,290.96 451.2724,299.56Q448.3024,303.37 446.5024,308.57Q446.1524,309.6 443.7724,318.3Q434.8424,350.99 434.2724,385Q433.9624,403.86 434.4624,407.25Q435.8124,416.45 435.7224,425.75A0.42,0.41 86 0 0 436.2024,426.17Q459.4024,422.43 482.4724,426.94Q505.5524,431.46 527.5224,442.19Q545.8124,451.12 561.6224,462.35Q571.2224,469.17 573.3824,471.09Q578.9824,476.09 582.5024,482.78Q583.4824,484.64 581.4824,484.01Q577.1724,482.64 573.1724,480.62Q570.4024,479.21 565.6824,475.79Q538.7224,456.21 507.7924,443.64Q461.0324,424.63 413.0824,440.75Q390.6024,448.31 370.8124,461.37Q356.6024,470.73 346.1524,484.16Q344.2724,486.58 341.5024,487.73A1.29,1.29 69.3 0 1 339.7824,486.95Q339.1924,485.2 340.0724,483.59Q344.3424,475.65 350.7024,469.24Q359.5424,460.32 369.9924,453.33Q396.8324,435.39 428.1524,427.56A0.52,0.51 -13.1 0 0 428.5424,426.95Q426.9324,419.46 425.3724,411.96Q425.3624,411.88 424.1724,405.5Q423.2824,400.7 421.8424,396.04Q419.8224,389.5 418.9024,386.77Q416.2024,378.8 411.3624,371.75Q410.6924,370.78 410.2524,371.88Q408.0524,377.37 404.2424,381.72Q400.4224,386.09 395.2024,388.5Q384.5724,393.4 373.0224,389.19Q367.9324,387.33 364.2024,382.07Q356.4624,371.15 363.8724,359.88Q369.4424,351.39 378.2924,348.36Q386.3624,345.61 395.7024,347.99Q406.3524,350.69 414.2924,359.16Q421.2424,366.58 425.1024,375.54Q425.8224,377.2 425.8924,375.4Q426.6524,357.12 429.9224,339.24Q431.7624,329.12 434.0324,319.66Q442.7324,283.4 461.7724,254.06Q494.4224,203.75 551.8024,182.27Q559.8124,179.27 561.9824,178.61Q567.1824,177.03 572.6424,176.49Q577.2324,176.04 581.2224,177.65A0.67,0.66 -52.8 0 1 581.3724,178.79L574.9024,184A1.03,0.97 71.4 0 0 574.5324,184.81Q574.5624,189.03 574.2124,192Q570.3924,224.08 557.2624,253.56Q541.5224,288.9 513.1524,311.44Q496.3524,324.78 473.7324,329.35Q468.8824,330.33 463.6224,330.22Q458.5324,330.11 453.4424,329.68Q449.9024,329.38 448.0724,326.51A0.79,0.79 63.9 0 1 448.4724,325.34Q452.9524,323.74 457.4524,324.13Q466.5324,324.9 475.1924,322.17Q500.5124,314.21 518.2624,295.4Q524.2124,289.1 531.0424,280.04Q542.0224,265.47 549.3024,248.57Q558.2024,227.9 562.5524,205.82Q564.3724,196.59 565.8324,187.73zM373.9024,378.81Q382.7224,385.63 393.3224,379.9Q401.8824,375.28 403.2724,365.95Q403.5524,364.09 402.6224,362.76Q401.6024,361.28 400.0624,360.38Q399.2324,359.9 395.4924,358.45Q383.9724,354.01 375.3124,361.44Q371.1524,365.01 370.0924,369.08Q368.6224,374.73 373.9024,378.81z" fill="rgb(0,0,0)" id="svg_3"></path><path d="M373.9024,378.81Q368.6224,374.73 370.0924,369.08Q371.1524,365.01 375.3124,361.44Q383.9724,354.01 395.4924,358.45Q399.2324,359.9 400.0624,360.38Q401.6024,361.28 402.6224,362.76Q403.5524,364.09 403.2724,365.95Q401.8824,375.28 393.3224,379.9Q382.7224,385.63 373.9024,378.81z" fill="rgb(248,247,245)" id="svg_4"></path><circle r="5.17" cy="463.06" cx="511.4124" fill="rgb(0,0,0)" id="svg_5"></circle><circle r="5.1" cy="467.97" cx="390.6824" fill="rgb(0,0,0)" id="svg_6"></circle><ellipse ry="4.61" rx="4.98" cy="489.760009765625" cx="442.5023932861328" fill="rgb(0,0,0)" transform="rotate(37.8 442.502 489.76)" id="svg_7"></ellipse></g></g><defs opacity="0.33" style="pointer-events: none"></defs></svg>
